<svg xmlns="http://www.w3.org/2000/svg" width="17.666" height="20.998" viewBox="0 0 17.666 20.998">
    <defs>
        <style>
            .cls-1{fill:#002575;stroke:rgba(0,0,0,0);stroke-miterlimit:10}
        </style>
    </defs>
    <path id="location" d="M-8926.5-966.14c-.076-.052-.2-.141-.348-.244q-.126-.09-.261-.192c-.2-.147-.4-.308-.62-.479a25.977 25.977 0 0 1-2.664-2.435c-2.639-2.787-3.978-5.538-3.978-8.177a8.341 8.341 0 0 1 8.332-8.332 8.342 8.342 0 0 1 8.334 8.332c0 2.641-1.338 5.39-3.978 8.177a25.672 25.672 0 0 1-2.664 2.435 22.069 22.069 0 0 1-1.068.804l-.157.108a.9.9 0 0 1-.084.049.826.826 0 0 1-.383.092.831.831 0 0 1-.461-.138zm.462-1.715c.218-.161.438-.33.652-.5a24.128 24.128 0 0 0 2.493-2.278 16.1 16.1 0 0 0 2.424-3.211 7.9 7.9 0 0 0 1.1-3.821 6.673 6.673 0 0 0-6.666-6.666 6.673 6.673 0 0 0-6.664 6.666c0 2.131 1.111 4.418 3.3 6.8l.216.231a24.434 24.434 0 0 0 2.493 2.278c.152.122.31.245.468.365l.183.137zm0-6.478a3.333 3.333 0 0 1-3.332-3.334 3.331 3.331 0 0 1 3.332-3.332 3.332 3.332 0 0 1 3.334 3.332 3.334 3.334 0 0 1-3.334 3.334z" class="cls-1" transform="translate(8934.875 986.499)"/>
</svg>
