<svg xmlns="http://www.w3.org/2000/svg" id="Layer" width="16.667" height="18.336" viewBox="0 0 16.667 18.336">
    <defs>
        <style>
            .cls-1{fill:#002575;fill-rule:evenodd}
        </style>
    </defs>
    <g id="Vrstva_105" data-name="Vrstva 105">
        <path id="Path_117" d="M13.417 9.933a5 5 0 1 0-6.167 0A8.333 8.333 0 0 0 2 17.666v.834a.833.833 0 1 0 1.667 0v-.833a6.667 6.667 0 1 1 13.333 0v.833a.833.833 0 0 0 1.667 0v-.833a8.333 8.333 0 0 0-5.25-7.733zM7 6a3.333 3.333 0 1 1 3.333 3.333A3.333 3.333 0 0 1 7 6z" class="cls-1" data-name="Path 117" transform="translate(-2 -.997)"/>
    </g>
</svg>
