<svg xmlns="http://www.w3.org/2000/svg" width="16.883" height="18.571" viewBox="0 0 16.883 18.571">
    <defs>
        <style>
            .cls-1{fill:#da1b15}
        </style>
    </defs>
    <path id="Clear_cart" d="M4.221 18.571a2.532 2.532 0 0 1-2.532-2.533V5.065h-.676A1.013 1.013 0 0 1 0 4.052V1.013A1.013 1.013 0 0 1 1.013 0H15.87a1.013 1.013 0 0 1 1.013 1.013v3.039a1.013 1.013 0 0 1-1.013 1.013h-.675v10.973a2.533 2.533 0 0 1-2.533 2.533zm-.844-2.533a.844.844 0 0 0 .844.844h8.442a.844.844 0 0 0 .844-.844V5.065H3.377zM1.688 3.376h13.507V1.688H1.688zm8.543 10.585L8.273 12l-1.959 1.962a.76.76 0 0 1-1.03-.169.759.759 0 0 1-.169-1.03L7.083 10.8 5.116 8.847a.76.76 0 0 1 .169-1.03.76.76 0 0 1 1.03-.169l1.958 1.967 1.958-1.967a.759.759 0 0 1 1.03.169.76.76 0 0 1 .169 1.03L9.463 10.8l1.966 1.958a.759.759 0 0 1-.169 1.03.759.759 0 0 1-1.03.169z" class="cls-1" data-name="Clear cart"/>
</svg>
