<svg xmlns="http://www.w3.org/2000/svg" width="21.196" height="21.196" viewBox="0 0 21.196 21.196">
    <defs>
        <style>
            .cls-1{fill:#002575}
        </style>
    </defs>
    <path id="plus_blue" d="M0 10.6a10.6 10.6 0 1 1 10.6 10.6A10.6 10.6 0 0 1 0 10.6zm1.927 0A8.671 8.671 0 1 0 10.6 1.927 8.671 8.671 0 0 0 1.927 10.6zm8.673 5.779a.905.905 0 0 1-.963-.829v-3.989H5.646a.906.906 0 0 1-.828-.964.905.905 0 0 1 .828-.963h3.989V5.646a.9.9 0 0 1 .963-.828.906.906 0 0 1 .964.828v3.989h3.988a.905.905 0 0 1 .828.963.906.906 0 0 1-.828.964h-3.989v3.988a.906.906 0 0 1-.9.831z" class="cls-1"/>
</svg>
